<svg width="130" height="37" viewBox="0 0 130 37" fill="none" xmlns="http://www.w3.org/2000/svg">
<path d="M0 1.38894H8.82638C11.0295 1.38894 12.8979 1.62704 14.4318 2.10323C15.9935 2.55141 17.2484 3.43376 18.1966 4.75029C19.1447 6.06681 19.6188 7.91555 19.6188 10.2965C19.6188 12.3133 19.1866 13.8819 18.3221 15.0024C17.4575 16.1228 16.2305 16.8371 14.6409 17.1452C16.593 17.3973 18.085 18.2237 19.1168 19.6242C20.1487 21.0248 20.6646 22.9296 20.6646 25.3385C20.6646 32.0612 17.2484 35.4226 10.416 35.4226H0V1.38894ZM8.95187 15.0024C10.5415 15.0024 11.6151 14.6382 12.1729 13.91C12.7585 13.1817 13.0513 12.0472 13.0513 10.5066C13.0513 9.16205 12.6888 8.15365 11.9637 7.48138C11.2386 6.7811 10.1789 6.43096 8.78455 6.43096H7.48778V15.0024H8.95187ZM9.07736 30.1705C10.667 30.1705 11.7824 29.7783 12.4239 28.994C13.0932 28.1817 13.4278 26.9212 13.4278 25.2125C13.4278 23.2797 13.0932 21.9212 12.4239 21.1368C11.7824 20.3525 10.653 19.9604 9.03553 19.9604H7.48778V30.1705H9.07736Z" fill="white"/>
<path d="M35.9702 35.9268C32.317 35.9268 29.7095 34.9884 28.1478 33.1116C26.5861 31.2069 25.8053 28.4058 25.8053 24.7083V12.0612C25.8053 8.36373 26.5861 5.59062 28.1478 3.74189C29.7095 1.86513 32.317 0.926758 35.9702 0.926758C39.6514 0.926758 42.2728 1.86513 43.8345 3.74189C45.4241 5.61864 46.2189 8.39174 46.2189 12.0612V24.7083C46.2189 28.4058 45.4241 31.2069 43.8345 33.1116C42.2728 34.9884 39.6514 35.9268 35.9702 35.9268ZM35.9702 30.5906C37.03 30.5906 37.7271 30.2405 38.0618 29.5402C38.3964 28.8119 38.5638 27.8315 38.5638 26.599V10.2125C38.5638 8.95197 38.3964 7.97158 38.0618 7.2713C37.7271 6.57102 37.03 6.22087 35.9702 6.22087C34.9663 6.22087 34.297 6.58502 33.9623 7.31331C33.6277 8.01359 33.4604 8.97998 33.4604 10.2125V26.599C33.4604 27.8315 33.6137 28.8119 33.9205 29.5402C34.2273 30.2405 34.9105 30.5906 35.9702 30.5906Z" fill="white"/>
<path d="M52.4491 1.38894H59.9369V30.3385H67.7175V35.4226H52.4491V1.38894Z" fill="white"/>
<path d="M72.6686 1.38894H81.244C84.1722 1.38894 86.4589 1.75309 88.1043 2.48138C89.7497 3.20967 90.907 4.35813 91.5763 5.92676C92.2735 7.46737 92.6221 9.54021 92.6221 12.1452V24.4982C92.6221 27.1312 92.2735 29.2321 91.5763 30.8007C90.907 32.3693 89.7497 33.5318 88.1043 34.2881C86.4868 35.0444 84.228 35.4226 81.3277 35.4226H72.6686V1.38894ZM81.3277 30.2125C82.4153 30.2125 83.2101 30.0584 83.712 29.7503C84.2419 29.4142 84.5765 28.952 84.716 28.3637C84.8554 27.7475 84.9251 26.8511 84.9251 25.6747V10.8427C84.9251 9.75029 84.8415 8.92396 84.6741 8.36373C84.5347 7.7755 84.2001 7.34132 83.6702 7.06121C83.1682 6.7811 82.3734 6.64104 81.2858 6.64104H80.1564V30.2125H81.3277Z" fill="white"/>
<path d="M114.271 30.8847L122.554 6.47298H114.648V1.38894H129.916V5.63264L121.508 30.3385H130V35.4226H114.271V30.8847Z" fill="white"/>
<rect x="100.344" width="11.6113" height="35.4839" transform="rotate(9.63599 100.344 0)" fill="#FF9E0D"/>
</svg>
